<svg version="1.1" xmlns="http://www.w3.org/2000/svg" width="372px" height="55px" transform="rotate(0) scale(1, 1)">
<path d="M0 0 C5.55012426 1.85004142 6.99077369 2.49754448 10.78515625 6.39453125 C11.64560547 7.26787109 12.50605469 8.14121094 13.39257812 9.04101562 C14.27365234 9.95560547 15.15472656 10.87019531 16.0625 11.8125 C16.94744141 12.71548828 17.83238281 13.61847656 18.74414062 14.54882812 C20.39796786 16.23739441 22.04763726 17.9300509 23.69165039 19.62817383 C25.33509909 21.31681519 26.99498907 22.98952159 28.66577148 24.65112305 C31 27 31 27 33 29.375 C34.85774546 31.23606373 34.85774546 31.23606373 37.22045898 30.98608398 C41.26440175 29.55143446 43.54696986 26.91052388 46.47265625 23.84765625 C47.07758408 23.23232529 47.6825119 22.61699432 48.30577087 21.98301697 C50.23443935 20.01878137 52.14920085 18.04170034 54.0625 16.0625 C55.98103945 14.08864351 57.90244565 12.11780786 59.8299408 10.1526947 C61.02759616 8.93061593 62.21986486 7.70322894 63.40602112 6.46998596 C69.67268532 0.05289352 69.67268532 0.05289352 74.75 -0.0625 C83.3313466 2.74294023 90.26123827 12.07827225 96.5 18.3125 C97.87671875 19.67084961 97.87671875 19.67084961 99.28125 21.05664062 C100.1475 21.92095703 101.01375 22.78527344 101.90625 23.67578125 C102.69322266 24.45864502 103.48019531 25.24150879 104.29101562 26.0480957 C106 28 106 28 106 30 C109.25639659 30.94271002 109.25639659 30.94271002 113 31 C115.51122992 28.84437583 115.51122992 28.84437583 118 26 C118.90274658 25.0605957 119.80549316 24.12119141 120.7355957 23.15332031 C121.20991531 22.65640686 121.68423492 22.15949341 122.17292786 21.64752197 C124.30831555 19.41758325 126.46325942 17.20693069 128.61889648 14.99658203 C129.74895843 13.83117001 130.87267823 12.65957491 131.98999023 11.48193359 C133.61871806 9.76791079 135.26938708 8.07787353 136.92578125 6.390625 C137.41565018 5.86462708 137.9055191 5.33862915 138.41023254 4.79669189 C141.09901191 2.10497397 143.36499043 0.6241517 147.06713867 -0.02441406 C153.5816293 0.01602601 156.47759507 3.22498305 160.90625 7.67578125 C161.81503906 8.58650391 162.72382813 9.49722656 163.66015625 10.43554688 C164.12695801 10.90855225 164.59375977 11.38155762 165.07470703 11.86889648 C166.49074665 13.30312777 167.91455935 14.72925846 169.33984375 16.15429688 C176.90935329 23.77212243 176.90935329 23.77212243 180 27.59765625 C181.81724255 30.13735565 181.81724255 30.13735565 184.5 31.125 C188.18812703 30.94059365 189.35925263 29.57787243 192 27 C193.05017203 25.80560204 194.0909547 24.60291782 195.125 23.39453125 C199.12503905 18.80133251 203.33433693 14.44598577 207.625 10.125 C208.36234375 9.36703125 209.0996875 8.6090625 209.859375 7.828125 C210.57867187 7.10367187 211.29796875 6.37921875 212.0390625 5.6328125 C212.68053223 4.98199707 213.32200195 4.33118164 213.98291016 3.66064453 C217.07198686 1.11744679 219.82017617 0.02621831 223.8125 -0.0625 C232.1650593 2.72168643 238.90513882 11.72231998 245 17.8125 C245.87011719 18.67037109 246.74023438 19.52824219 247.63671875 20.41210938 C248.86841797 21.6409082 248.86841797 21.6409082 250.125 22.89453125 C250.87007812 23.63550049 251.61515625 24.37646973 252.3828125 25.13989258 C254 27 254 27 254 29 C256.20647548 30.38926234 257.60994989 31.00990536 260.23999023 30.94311523 C264.29133021 29.55874316 266.55562654 26.9014613 269.47265625 23.84765625 C270.38004799 22.92465981 270.38004799 22.92465981 271.30577087 21.98301697 C273.23443935 20.01878137 275.14920085 18.04170034 277.0625 16.0625 C278.98103945 14.08864351 280.90244565 12.11780786 282.8299408 10.1526947 C284.02759616 8.93061593 285.21986486 7.70322894 286.40602112 6.46998596 C292.69478591 0.03026242 292.69478591 0.03026242 298.31030273 -0.04345703 C303.29838643 1.36718743 305.59255617 3.94967181 309.03515625 7.6953125 C310.35218216 9.06383229 311.66924042 10.43232094 312.98632812 11.80078125 C315.0339934 13.96692686 317.07541314 16.13876889 319.11450195 18.31298828 C321.09434187 20.41319981 323.09482819 22.49205005 325.09765625 24.5703125 C325.70094254 25.22855011 326.30422882 25.88678772 326.92579651 26.56497192 C328.55419664 28.24946308 330.03834901 29.7188212 332 31 C335.59793016 31.00450536 337.16914114 30.72678468 339.87109375 28.36328125 C340.64646484 27.34814453 340.64646484 27.34814453 341.4375 26.3125 C343.64457416 23.5815489 345.77356007 21.2140888 348.5 19 C351.7899327 16.29021168 354.47269341 13.25757702 357.24609375 10.03125 C358.99000595 8.0115744 360.74272451 6.01425921 362.5625 4.0625 C363.33787109 3.21365234 363.33787109 3.21365234 364.12890625 2.34765625 C366.64766846 0.53351645 368.9551793 0.33736443 372 0 C372.14492719 3.93711437 372.23394537 7.87354625 372.3125 11.8125 C372.35439453 12.93205078 372.39628906 14.05160156 372.43945312 15.20507812 C372.45556641 16.27822266 372.47167969 17.35136719 372.48828125 18.45703125 C372.51446533 19.44678955 372.54064941 20.43654785 372.56762695 21.45629883 C372 24 372 24 369.86474609 25.46118164 C368.91937988 25.9689917 367.97401367 26.47680176 367 27 C364.7745611 28.93713929 362.73631513 31.0538716 360.67578125 33.1640625 C360.08830612 33.7567392 359.50083099 34.34941589 358.89555359 34.96005249 C357.02968958 36.84365058 355.17068831 38.7338318 353.3125 40.625 C351.44271965 42.52240074 349.57149267 44.4183168 347.6973114 46.31137085 C346.53373948 47.48719996 345.37285115 48.66569195 344.21492004 49.84707642 C340.76818828 53.3367446 339.24890337 54.84011183 334.32519531 55.47045898 C329.76012232 55.39737411 327.7389842 53.62301768 324.62225342 50.45167542 C324.01987854 49.79859909 323.41750366 49.14552277 322.796875 48.47265625 C322.15179993 47.80914658 321.50672485 47.1456369 320.84210205 46.46202087 C318.79150056 44.34699046 316.76989825 42.20683669 314.75 40.0625 C312.71166801 37.92633769 310.66769796 35.7961023 308.61505127 33.6736908 C307.34133025 32.35385105 306.07657589 31.02528543 304.82196045 29.68727112 C303.9602121 28.78645058 303.9602121 28.78645058 303.08105469 27.86743164 C302.58112 27.33670547 302.0811853 26.80597931 301.56610107 26.25917053 C299.71723436 24.77265186 298.34104011 24.31278239 296 24 C294.14892791 25.01477391 294.14892791 25.01477391 292.45703125 26.73046875 C291.76174316 27.37935059 291.06645508 28.02823242 290.35009766 28.69677734 C285.75724551 33.19802056 281.20314038 37.73404893 276.6875 42.3125 C274.73598727 44.29067187 272.78112308 46.26544457 270.82421875 48.23828125 C269.54164185 49.5382605 269.54164185 49.5382605 268.2331543 50.86450195 C265.31617744 53.65391887 263.68880729 54.92346586 259.625 55.375 C253.86425141 54.77906049 251.47584014 51.59141355 247.875 47.40234375 C243.8809212 42.82414654 239.74030885 38.41279897 235.5 34.0625 C234.77941406 33.29615234 234.05882812 32.52980469 233.31640625 31.74023438 C230.03334703 28.38890178 227.78326503 26.26438283 223.28515625 24.74609375 C219.15959939 25.06495367 217.85619604 26.11452489 214.9375 29 C214.08671875 29.83015625 213.2359375 30.6603125 212.359375 31.515625 C209.91007333 34.094691 207.54585947 36.70462367 205.2890625 39.453125 C203.3418125 41.789825 201.17595751 43.87711463 199 46 C198.43023437 46.59167969 197.86046875 47.18335938 197.2734375 47.79296875 C196.36464844 48.73076172 196.36464844 48.73076172 195.4375 49.6875 C194.87933594 50.26886719 194.32117188 50.85023437 193.74609375 51.44921875 C191.0913748 53.80698927 188.71454909 54.85384223 185.25 55.5625 C178.23093101 54.34766114 173.18564757 47.22164385 168.43359375 42.25 C167.94651947 41.74343369 167.45944519 41.23686737 166.95761108 40.71495056 C162.83930871 36.43113076 162.83930871 36.43113076 160.9152832 34.36669922 C159.439738 32.78818688 157.93989207 31.23661764 156.43359375 29.6875 C155.55759521 28.76324219 154.68159668 27.83898437 153.77905273 26.88671875 C151.05051512 24.64249834 151.05051512 24.64249834 147.30810547 25.07788086 C143.39795693 26.16781673 142.15790822 27.39899128 139.6875 30.5625 C138.49152466 32.06863004 137.26954726 33.55534278 136 35 C135.34 35 134.68 35 134 35 C133.73968994 35.57975586 133.47937988 36.15951172 133.21118164 36.75683594 C131.00663671 40.83975446 127.6433208 43.93585466 124.4375 47.25 C123.75880859 47.99507812 123.08011719 48.74015625 122.38085938 49.5078125 C118.92833509 53.06121167 116.3774224 55.49714369 111.28515625 55.796875 C107.99526018 55.74092824 107.06733786 55.0610884 104.57983398 52.80444336 C103.30281616 51.4162439 103.30281616 51.4162439 102 50 C101.11183594 49.09612549 100.22367187 48.19225098 99.30859375 47.26098633 C98.84461182 46.78732132 98.38062988 46.31365631 97.90258789 45.82563782 C95.82188321 43.70443117 93.73283731 41.59151396 91.64355469 39.47875977 C90.54516307 38.36519429 89.44946677 37.24896398 88.35644531 36.13012695 C86.76554841 34.50277001 85.16509102 32.88536306 83.5625 31.26953125 C83.079021 30.77056839 82.59554199 30.27160553 82.09741211 29.75752258 C79.26834168 26.92707053 76.83097527 25.19370339 73 24 C65.8770612 29.97775145 59.40278505 36.53832783 52.90991211 43.18603516 C51.54470048 44.5815636 50.17281282 45.97055111 48.80078125 47.359375 C47.99809814 48.17889648 47.19541504 48.99841797 46.3684082 49.84277344 C43.10358616 52.81648415 40.40512656 54.79508571 36 55.4375 C28.62059743 54.36133713 23.02870754 46.03170341 17.98828125 40.953125 C16.5791711 39.53712193 15.17005355 38.12112615 13.76049805 36.70556641 C12.78891339 35.7289035 11.81822077 34.75135245 10.84838867 33.77294922 C9.43903459 32.35150887 8.02621037 30.93351177 6.61328125 29.515625 C5.77579346 28.67290039 4.93830566 27.83017578 4.07543945 26.96191406 C2.1549166 24.95685932 2.1549166 24.95685932 0 24 C0 16.08 0 8.16 0 0 Z " fill="#ebd7c6" transform="translate(0,0)"/>
<path d="M0 0 C0.99 0.33 1.98 0.66 3 1 C5.63804589 0.60602665 5.63804589 0.60602665 8 0 C8.495 0.99 8.495 0.99 9 2 C7.515 2.2165625 7.515 2.2165625 6 2.4375 C1.16343957 3.747607 -1.26662539 7.32227995 -4.30078125 11.1015625 C-5.14189453 12.04128906 -5.14189453 12.04128906 -6 13 C-6.66 13 -7.32 13 -8 13 C-8.26031006 13.57975586 -8.52062012 14.15951172 -8.78881836 14.75683594 C-10.99336329 18.83975446 -14.3566792 21.93585466 -17.5625 25.25 C-18.58053711 26.36761719 -18.58053711 26.36761719 -19.61914062 27.5078125 C-24.71841576 32.75607682 -24.71841576 32.75607682 -28.53466797 33.48242188 C-30.74760439 33.48415581 -32.81798917 33.35554447 -35 33 C-35.33 32.34 -35.66 31.68 -36 31 C-34.96875 31.0825 -33.9375 31.165 -32.875 31.25 C-26.18189652 30.81818687 -22.40439953 26.73472949 -18 22 C-17.44570312 21.41605469 -16.89140625 20.83210938 -16.3203125 20.23046875 C-15.76085937 19.61816406 -15.20140625 19.00585938 -14.625 18.375 C-14.10164063 17.80523437 -13.57828125 17.23546875 -13.0390625 16.6484375 C-12.69617188 16.10445312 -12.35328125 15.56046875 -12 15 C-12.33 14.01 -12.66 13.02 -13 12 C-12.0409375 11.566875 -12.0409375 11.566875 -11.0625 11.125 C-8.84793921 10.17176549 -8.84793921 10.17176549 -8 8 C-5.9375 7.375 -5.9375 7.375 -4 7 C-3.67 5.68 -3.34 4.36 -3 3 C-2.34 3 -1.68 3 -1 3 C-0.67 2.01 -0.34 1.02 0 0 Z " fill="#ebd7c6" transform="translate(142,22)"/>
<path d="M0 0 C6.28299333 0.31001612 9.46918833 1.44579977 13.8125 6.12890625 C14.31168945 6.63800034 14.81087891 7.14709442 15.32519531 7.6716156 C16.90080423 9.28611029 18.45018763 10.92326611 20 12.5625 C21.06996646 13.66761371 22.14156729 14.77114752 23.21484375 15.87304688 C25.82914834 18.56413195 28.42022599 21.27581196 31 24 C30.67 24.66 30.34 25.32 30 26 C29.3294458 25.30849854 28.6588916 24.61699707 27.96801758 23.90454102 C25.47162421 21.33561212 22.96190459 18.78005518 20.44799805 16.22827148 C19.36294892 15.12313785 18.28152079 14.01443662 17.20385742 12.90209961 C15.65186517 11.30145107 14.08719337 9.71419259 12.51953125 8.12890625 C12.04224075 7.63097061 11.56495026 7.13303497 11.07319641 6.62001038 C8.12331123 3.66818816 6.10846438 2.54858712 2 2 C1.34 1.34 0.68 0.68 0 0 Z " fill="#ebd7c6" transform="translate(146,0)"/>
<path d="M0 0 C2 1.375 2 1.375 4 3 C4 3.66 4 4.32 4 5 C7.13498292 6.85776765 9.37471432 7.20140476 13 7 C12.67 7.99 12.34 8.98 12 10 C10.56274129 10.16873478 9.12518162 10.33490737 7.6875 10.5 C6.88699219 10.5928125 6.08648437 10.685625 5.26171875 10.78125 C3 11 3 11 0 11 C-0.84098656 6.98195309 -1.05404945 3.98196457 0 0 Z " fill="#ebd7c6" transform="translate(250,24)"/>
<path d="M0 0 C0 5.19492315 -4.45094867 8.13092589 -7.9375 11.6875 C-8.67291016 12.48478516 -9.40832031 13.28207031 -10.16601562 14.10351562 C-15.68161136 19.7347221 -15.68161136 19.7347221 -19.57470703 20.51806641 C-22.06640625 20.51953125 -22.06640625 20.51953125 -26 20 C-26.33 19.34 -26.66 18.68 -27 18 C-25.96875 18.0825 -24.9375 18.165 -23.875 18.25 C-17.18189652 17.81818687 -13.40439953 13.73472949 -9 9 C-7.46114707 7.19555824 -5.93386423 5.38425073 -4.4296875 3.55078125 C-3 2 -3 2 0 0 Z " fill="#ebd7c6" transform="translate(133,35)"/>
<path d="M0 0 C1.66666667 0 3.33333333 0 5 0 C3.59155282 3.21524305 1.89655214 5.32183868 -0.625 7.75 C-1.57246094 8.67039062 -1.57246094 8.67039062 -2.5390625 9.609375 C-3.02117187 10.06828125 -3.50328125 10.5271875 -4 11 C-5.32 10.34 -6.64 9.68 -8 9 C-7.34 9 -6.68 9 -6 9 C-5.896875 8.360625 -5.79375 7.72125 -5.6875 7.0625 C-5.460625 6.381875 -5.23375 5.70125 -5 5 C-4.01 4.67 -3.02 4.34 -2 4 C-2 3.34 -2 2.68 -2 2 C-1.34 2 -0.68 2 0 2 C0 1.34 0 0.68 0 0 Z " fill="#ebd7c6" transform="translate(282,28)"/>
<path d="M0 0 C0.33 1.32 0.66 2.64 1 4 C1.66 3.01 2.32 2.02 3 1 C4.04449911 4.13349732 3.93423645 4.98968256 3 8 C-2.5 8.36666667 -2.5 8.36666667 -4.875 6.625 C-6 5 -6 5 -6 3 C-4.68 3.33 -3.36 3.66 -2 4 C-1.34 2.68 -0.68 1.36 0 0 Z " fill="#ebd7c6" transform="translate(259,46)"/>
<path d="M0 0 C1.14926266 0.95421808 2.29430541 1.91352045 3.4375 2.875 C4.07558594 3.40867187 4.71367187 3.94234375 5.37109375 4.4921875 C7 6 7 6 8 8 C6.68 8 5.36 8 4 8 C3.67 8.66 3.34 9.32 3 10 C1.5 8.9375 1.5 8.9375 0 7 C-0.1875 3.3125 -0.1875 3.3125 0 0 Z " fill="#ebd7c6" transform="translate(228,2)"/>
<path d="M0 0 C0.99 0.66 1.98 1.32 3 2 C3 2.66 3 3.32 3 4 C3.66 4 4.32 4 5 4 C5 3.34 5 2.68 5 2 C5.66 2 6.32 2 7 2 C6.34 4.31 5.68 6.62 5 9 C3.85073734 8.04578192 2.70569459 7.08647955 1.5625 6.125 C0.92441406 5.59132813 0.28632812 5.05765625 -0.37109375 4.5078125 C-2 3 -2 3 -3 1 C-2.01 0.67 -1.02 0.34 0 0 Z " fill="#ebd7c6" transform="translate(86,29)"/>
<path d="M0 0 C0 1.65 0 3.3 0 5 C-0.66 5 -1.32 5 -2 5 C-2 5.99 -2 6.98 -2 8 C-2.99 8 -3.98 8 -5 8 C-5.33 7.01 -5.66 6.02 -6 5 C-5.34 5 -4.68 5 -4 5 C-3.67 3.68 -3.34 2.36 -3 1 C-3.66 1 -4.32 1 -5 1 C-5 1.66 -5 2.32 -5 3 C-5.66 2.67 -6.32 2.34 -7 2 C-6 0 -6 0 -4.0625 -0.6875 C-2 -1 -2 -1 0 0 Z " fill="#ebd7c6" transform="translate(96,30)"/>
<path d="M0 0 C3.62613199 0.56959153 5.25517741 1.92374534 7.75 4.5625 C8.36359375 5.20316406 8.9771875 5.84382812 9.609375 6.50390625 C10.06828125 6.99761719 10.5271875 7.49132812 11 8 C9.02 8.99 9.02 8.99 7 10 C6.9175 9.21625 6.835 8.4325 6.75 7.625 C6.27676847 4.87716848 6.27676847 4.87716848 4.0625 3.75 C3.381875 3.5025 2.70125 3.255 2 3 C1.34 2.67 0.68 2.34 0 2 C0 1.34 0 0.68 0 0 Z " fill="#ebd7c6" transform="translate(150,2)"/>
<path d="M0 0 C2.97 0.495 2.97 0.495 6 1 C6 1.66 6 2.32 6 3 C6.66 3 7.32 3 8 3 C8.33 4.98 8.66 6.96 9 9 C7.87105124 8.06725891 6.74699124 7.12859878 5.625 6.1875 C4.99851563 5.66542969 4.37203125 5.14335938 3.7265625 4.60546875 C2 3 2 3 0 0 Z " fill="#ebd7c6" transform="translate(164,37)"/>
<path d="M0 0 C1.98 1.65 3.96 3.3 6 5 C4.68 5.99 3.36 6.98 2 8 C1.01 7.34 0.02 6.68 -1 6 C-0.67 4.02 -0.34 2.04 0 0 Z " fill="#ebd7c6" transform="translate(238,12)"/>
<path d="M0 0 C-0.33 1.32 -0.66 2.64 -1 4 C-4.05847848 4.54372951 -6.88772805 5 -10 5 C-6.75728676 1.53365137 -4.90610505 0 0 0 Z " fill="#ebd7c6" transform="translate(372,0)"/>
<path d="M0 0 C0.99 0.33 1.98 0.66 3 1 C2.8125 2.875 2.8125 2.875 2 5 C-0.5625 6.25 -0.5625 6.25 -3 7 C-3.66 6.01 -4.32 5.02 -5 4 C-4.360625 3.71125 -3.72125 3.4225 -3.0625 3.125 C-0.84793921 2.17176549 -0.84793921 2.17176549 0 0 Z " fill="#ebd7c6" transform="translate(134,30)"/>
<path d="M0 0 C5.75 1.625 5.75 1.625 8 5 C6.68 4.34 5.36 3.68 4 3 C3.01 4.485 3.01 4.485 2 6 C1.34 6 0.68 6 0 6 C0 4.02 0 2.04 0 0 Z " fill="#ebd7c6" transform="translate(0,0)"/>
<path d="M0 0 C0 0.99 0 1.98 0 3 C-0.66 3 -1.32 3 -2 3 C-2 3.66 -2 4.32 -2 5 C-2.66 5 -3.32 5 -4 5 C-5.625 2.5 -5.625 2.5 -7 0 C-3.86650268 -1.04449911 -3.01031744 -0.93423645 0 0 Z " fill="#ebd7c6" transform="translate(108,48)"/>
<path d="M0 0 C0.33 0.66 0.66 1.32 1 2 C0.34 2 -0.32 2 -1 2 C-1 2.99 -1 3.98 -1 5 C-1.99 5 -2.98 5 -4 5 C-4.33 5.99 -4.66 6.98 -5 8 C-6 5 -6 5 -6 3 C-4.02 2.01 -2.04 1.02 0 0 Z " fill="#ebd7c6" transform="translate(368,3)"/>
<path d="M0 0 C0 3 0 3 -2 5.1875 C-2.66 5.785625 -3.32 6.38375 -4 7 C-4.66 6.67 -5.32 6.34 -6 6 C-6 4.68 -6 3.36 -6 2 C-4.02 1.34 -2.04 0.68 0 0 Z " fill="#ebd7c6" transform="translate(208,34)"/>
<path d="M0 0 C5.53846154 0.61538462 5.53846154 0.61538462 7.875 2.5625 C8.431875 3.2740625 8.431875 3.2740625 9 4 C5.98968256 4.93423645 5.13349732 5.04449911 2 4 C2 3.01 2 2.02 2 1 C1.34 0.67 0.68 0.34 0 0 Z " fill="#ebd7c6" transform="translate(72,0)"/>
<path d="M0 0 C1.98 0 3.96 0 6 0 C5.67 1.98 5.34 3.96 5 6 C3.2925002 4.71937515 1.62626404 3.38232443 0 2 C0 1.34 0 0.68 0 0 Z " fill="#ebd7c6" transform="translate(78,24)"/>
<path d="M0 0 C0.66 0 1.32 0 2 0 C5 5.625 5 5.625 5 9 C3.02 6.69 1.04 4.38 -1 2 C-0.67 1.34 -0.34 0.68 0 0 Z " fill="#ebd7c6" transform="translate(152,22)"/>
<path d="M0 0 C1.5 1.375 1.5 1.375 3 3 C3 3.66 3 4.32 3 5 C3.66 5 4.32 5 5 5 C4.67 5.99 4.34 6.98 4 8 C3.67 7.34 3.34 6.68 3 6 C0.98330173 4.86649466 0.98330173 4.86649466 -1 4 C-0.67 2.68 -0.34 1.36 0 0 Z " fill="#ebd7c6" transform="translate(266,39)"/>
<path d="M0 0 C1.32 0 2.64 0 4 0 C4.33 1.65 4.66 3.3 5 5 C4.01 5 3.02 5 2 5 C0 1.125 0 1.125 0 0 Z M-1 5 C-0.34 5 0.32 5 1 5 C0.67 5.66 0.34 6.32 0 7 C-0.33 6.34 -0.66 5.68 -1 5 Z " fill="#ebd7c6" transform="translate(99,38)"/>
<path d="M0 0 C-0.33 0.99 -0.66 1.98 -1 3 C-3.97 3 -6.94 3 -10 3 C-10.33 2.34 -10.66 1.68 -11 1 C-9.88625 1.020625 -8.7725 1.04125 -7.625 1.0625 C-4.58237918 1.01004102 -2.83730029 0 0 0 Z " fill="#ebd7c6" transform="translate(117,52)"/>
<path d="M0 0 C1.65 0 3.3 0 5 0 C4.67 0.99 4.34 1.98 4 3 C2.35 3.33 0.7 3.66 -1 4 C-0.67 2.68 -0.34 1.36 0 0 Z " fill="#ebd7c6" transform="translate(111,50)"/>
<path d="M0 0 C0.33 1.32 0.66 2.64 1 4 C0.34 4 -0.32 4 -1 4 C-1.33 4.99 -1.66 5.98 -2 7 C-2.99 5.68 -3.98 4.36 -5 3 C-4.360625 2.690625 -3.72125 2.38125 -3.0625 2.0625 C-1.06389179 1.1654837 -1.06389179 1.1654837 0 0 Z " fill="#ebd7c6" transform="translate(102,41)"/>
<path d="M0 0 C2.97 0.495 2.97 0.495 6 1 C6 1.66 6 2.32 6 3 C4.02 3.33 2.04 3.66 0 4 C0 2.66666667 0 1.33333333 0 0 Z " fill="#ebd7c6" transform="translate(106,32)"/>
</svg>